<?xml version="1.0" encoding="iso-8859-1"?>
<!-- Uploaded to: SVG Repo, www.svgrepo.com, Generator: SVG Repo Mixer Tools -->
<svg fill="#000000" height="800px" width="800px" version="1.1" id="Layer_1" xmlns="http://www.w3.org/2000/svg" xmlns:xlink="http://www.w3.org/1999/xlink" 
	 viewBox="0 0 479.999 479.999" xml:space="preserve">
<g>
	<g>
		<path d="M471.982,102.27l-33.804-6.835V83.662c0-4.946-3.616-9.149-8.507-9.888L241.493,45.358
			c-0.119-0.019-0.238-0.02-0.358-0.034c-0.204-0.023-0.406-0.048-0.612-0.059c-0.162-0.009-0.322-0.006-0.483-0.006
			c-0.196-0.001-0.391-0.004-0.587,0.007c-0.177,0.01-0.351,0.032-0.526,0.052c-0.14,0.015-0.28,0.019-0.42,0.04L50.329,73.774
			c-4.891,0.738-8.507,4.941-8.507,9.888v11.563L7.96,102.282c-4.637,0.967-7.96,5.054-7.96,9.79v312.67
			c0,2.866,1.23,5.594,3.376,7.492c1.838,1.625,4.198,2.508,6.623,2.508c0.408,0,0.817-0.025,1.227-0.075L240,406.398
			l228.773,28.269c0.41,0.051,0.819,0.075,1.227,0.075c2.425,0,4.785-0.883,6.623-2.508c2.147-1.898,3.376-4.626,3.376-7.492
			v-312.67C480,107.313,476.646,103.213,471.982,102.27z M230,387.481L20,413.43V120.203l21.822-4.547v266.455
			c0,2.913,1.27,5.681,3.478,7.581c1.827,1.571,4.145,2.419,6.521,2.419c0.497,0,0.996-0.037,1.494-0.112L230,365.314V387.481z
			 M230,345.088L61.822,370.487V92.265L230,66.869V345.088z M250,66.869l168.178,25.396v278.222L250,345.088V66.869z M460,413.43
			l-210-25.949v-22.167l176.685,26.685c0.497,0.075,0.997,0.112,1.494,0.112c2.376,0,4.695-0.848,6.522-2.419
			c2.208-1.9,3.478-4.668,3.478-7.581V115.839L460,120.253V413.43z"/>
	</g>
</g>
</svg>